<svg xmlns="http://www.w3.org/2000/svg" version="1.1" xmlns:xlink="http://www.w3.org/1999/xlink" xmlns:svgjs="http://svgjs.dev/svgjs" width="2000" height="3179" viewBox="0 0 2000 3179"><g transform="matrix(1,0,0,1,-5.158452966673508,-5.127419354838821)"><svg viewBox="0 0 156 248" data-background-color="#efefef" preserveAspectRatio="xMidYMid meet" height="3179" width="2000" xmlns="http://www.w3.org/2000/svg" xmlns:xlink="http://www.w3.org/1999/xlink"><g id="tight-bounds" transform="matrix(1,0,0,1,0.4023593314005325,0.4000000000000057)"><svg viewBox="0 0 155.19528133719894 247.2" height="247.2" width="155.19528133719894"><g><svg></svg></g><g><svg viewBox="0 0 155.19528133719894 247.2" height="247.2" width="155.19528133719894"><g transform="matrix(1,0,0,1,0,47.215199999999996)"><svg viewBox="0 0 155.19528133719894 152.7696" height="152.7696" width="155.19528133719894"><g><svg viewBox="0 0 244.43135999999998 240.61093077644705" height="152.7696" width="155.19528133719894"><g transform="matrix(1,0,0,1,0,171.1367816252275)"><svg viewBox="0 0 244.43135999999998 69.47414915121952" height="69.47414915121952" width="244.43135999999998"><g id="textblocktransform"><svg viewBox="0 0 244.43135999999998 69.47414915121952" height="69.47414915121952" width="244.43135999999998" id="textblock"><g><svg viewBox="0 0 244.43135999999998 69.47414915121952" height="69.47414915121952" width="244.43135999999998"><g transform="matrix(1,0,0,1,0,0)"><svg width="244.43135999999998" viewBox="4 -41.3 156.24 43.699999999999996" height="69.47414915121952" data-palette-color="#d94e28"><g class="wordmark-text-0" data-fill-palette-color="primary" id="text-0"><path d="M13.7-34.15L12.9-37.05Q15.05-38.35 17.32-38.88 19.6-39.4 21.5-39.4L21.5-39.4Q25-39.4 27.28-38 29.55-36.6 30.68-34.35 31.8-32.1 31.8-29.45L31.8-29.45Q31.8-27 30.83-24.55 29.85-22.1 27.95-20.05 26.05-18 23.25-16.78 20.45-15.55 16.75-15.55L16.75-15.55Q16.05-15.55 15.35-15.6 14.65-15.65 13.9-15.75L13.9-15.75 13.75-17.85Q17.15-17.85 19.4-18.8 21.65-19.75 22.98-21.33 24.3-22.9 24.88-24.78 25.45-26.65 25.45-28.5L25.45-28.5Q25.45-30.3 24.7-31.85 23.95-33.4 22.43-34.33 20.9-35.25 18.55-35.25L18.55-35.25Q17.5-35.25 16.28-34.98 15.05-34.7 13.7-34.15L13.7-34.15ZM4-3.45L4-3.45Q4-5.25 4.35-8.05 4.7-10.85 5.2-14.25 5.7-17.65 6.18-21.35 6.65-25.05 7-28.75 7.35-32.45 7.35-35.8L7.35-35.8Q7.35-37.7 7.18-39.13 7-40.55 6.65-41.3L6.65-41.3Q9-41.15 10.63-40.25 12.25-39.35 13.13-37.83 14-36.3 14-34.15L14-34.15Q14-32.1 13.58-28.9 13.15-25.7 12.58-21.73 12-17.75 11.58-13.28 11.15-8.8 11.15-4.15L11.15-4.15Q11.15-3 11.2-1.78 11.25-0.55 11.45 0.75L11.45 0.75Q10.85 0.8 10.33 0.83 9.8 0.85 9.35 0.85L9.35 0.85Q6.5 0.85 5.25-0.15 4-1.15 4-3.45ZM45.95-38.8L49.2-35.45Q48.35-32.9 46.95-29.53 45.55-26.15 43.9-22.28 42.25-18.4 40.6-14.28 38.95-10.15 37.52-6.1 36.1-2.05 35.15 1.65L35.15 1.65Q33.1 0.95 32 0.3 30.9-0.35 30.47-0.98 30.05-1.6 30.05-2.2L30.05-2.2Q30.05-2.85 30.92-4.9 31.8-6.95 33.25-10.03 34.7-13.1 36.47-16.78 38.25-20.45 40.05-24.35 41.85-28.25 43.4-31.98 44.95-35.7 45.95-38.8L45.95-38.8ZM53.95-3.2L53.95-3.2Q53.6-4.25 53.1-6.43 52.6-8.6 52-11.53 51.4-14.45 50.7-17.73 50-21 49.25-24.28 48.5-27.55 47.72-30.43 46.95-33.3 46.2-35.4L46.2-35.4Q45.55-37.15 44.77-38.08 44-39 43.45-39.65L43.45-39.65Q44.35-39.95 45.22-40.1 46.1-40.25 46.8-40.25L46.8-40.25Q49.25-40.25 50.67-39.2 52.1-38.15 52.92-36.13 53.75-34.1 54.35-31.2 54.95-28.3 55.8-24.65L55.8-24.65Q56.95-19.85 57.87-15.23 58.8-10.6 59.95-6.8 61.1-3 62.8-0.6L62.8-0.6Q61.55 0 60.25 0.4 58.95 0.8 58.05 0.8L58.05 0.8Q56.2 0.8 55.4-0.23 54.6-1.25 53.95-3.2ZM37.8-11.05L39.4-15.3 52.85-15.3Q52.7-13.9 51.97-13.05 51.25-12.2 50.17-11.83 49.1-11.45 47.9-11.4L47.9-11.4 37.8-11.05ZM79.3-17L85.75-18.3Q87.05-14.05 88.97-10.08 90.9-6.1 93.02-3 95.15 0.1 97.05 1.9L97.05 1.9Q96.09 2.15 95.22 2.27 94.34 2.4 93.59 2.4L93.59 2.4Q91.4 2.4 89.57 1.25 87.75 0.1 86.25-1.88 84.75-3.85 83.52-6.35 82.3-8.85 81.25-11.6 80.2-14.35 79.3-17L79.3-17ZM77-34.15L76.2-37.05Q78.34-38.35 80.62-38.88 82.9-39.4 84.8-39.4L84.8-39.4Q88.3-39.4 90.57-38 92.84-36.6 93.97-34.35 95.09-32.1 95.09-29.45L95.09-29.45Q95.09-27 94.12-24.55 93.15-22.1 91.25-20.05 89.34-18 86.55-16.78 83.75-15.55 80.05-15.55L80.05-15.55Q79.34-15.55 78.65-15.6 77.95-15.65 77.2-15.75L77.2-15.75 77.05-17.85Q80.45-17.85 82.7-18.8 84.95-19.75 86.27-21.33 87.59-22.9 88.17-24.78 88.75-26.65 88.75-28.5L88.75-28.5Q88.75-30.3 88-31.85 87.25-33.4 85.72-34.33 84.2-35.25 81.84-35.25L81.84-35.25Q80.8-35.25 79.57-34.98 78.34-34.7 77-34.15L77-34.15ZM67.3-3.45L67.3-3.45Q67.3-5.25 67.64-8.05 68-10.85 68.5-14.25 69-17.65 69.47-21.35 69.95-25.05 70.3-28.75 70.64-32.45 70.64-35.8L70.64-35.8Q70.64-39.75 69.95-41.3L69.95-41.3Q72.3-41.15 73.92-40.25 75.55-39.35 76.42-37.83 77.3-36.3 77.3-34.15L77.3-34.15Q77.3-32.1 76.87-28.9 76.45-25.7 75.87-21.73 75.3-17.75 74.87-13.28 74.45-8.8 74.45-4.15L74.45-4.15Q74.45-3 74.5-1.78 74.55-0.55 74.75 0.75L74.75 0.75Q74.15 0.8 73.62 0.83 73.09 0.85 72.64 0.85L72.64 0.85Q69.8 0.85 68.55-0.15 67.3-1.15 67.3-3.45ZM98.04-36.05L98.04-36.05Q98.04-37 98.17-37.77 98.29-38.55 98.44-39.05L98.44-39.05Q101.39-38.55 104.37-38.35 107.34-38.15 110.29-38.15L110.29-38.15Q114.59-38.15 118.84-38.6 123.09-39.05 127.19-39.95L127.19-39.95Q126.89-37.7 126.02-36.23 125.14-34.75 123.79-33.98 122.44-33.2 120.74-33L120.74-33Q118.74-32.8 116.02-32.6 113.29-32.4 110.37-32.25 107.44-32.1 104.82-32.02 102.19-31.95 100.34-31.95L100.34-31.95Q99.39-31.95 98.89-32.58 98.39-33.2 98.22-34.15 98.04-35.1 98.04-36.05ZM108.39-36L115.44-34.2Q115.44-32.75 115.12-30.08 114.79-27.4 114.29-24 113.79-20.6 113.29-16.98 112.79-13.35 112.47-9.95 112.14-6.55 112.14-3.9L112.14-3.9Q112.14-0.1 112.84 1.55L112.84 1.55Q109.89 0.8 108.29-0.28 106.69-1.35 106.09-2.88 105.49-4.4 105.49-6.45L105.49-6.45Q105.49-8.05 105.79-10.48 106.09-12.9 106.52-15.9 106.94-18.9 107.37-22.25 107.79-25.6 108.09-29.1 108.39-32.6 108.39-36L108.39-36ZM152.99-22L152.99-22Q152.99-20.4 152.52-19.45 152.04-18.5 151.29-18.05 150.54-17.6 149.67-17.45 148.79-17.3 148.04-17.3L148.04-17.3Q146.19-17.3 144.31-17.35 142.44-17.4 140.54-17.4L140.54-17.4Q137.39-17.4 134.22-17.05 131.04-16.7 128.04-15.55L128.04-15.55Q127.99-15.95 127.97-16.38 127.94-16.8 127.94-17.2L127.94-17.2Q127.94-19.2 128.84-20.2 129.74-21.2 131.27-21.53 132.79-21.85 134.64-21.85L134.64-21.85Q135.49-21.85 138.22-21.85 140.94-21.85 144.84-21.9 148.74-21.95 152.99-22ZM160.24-34.2L160.24-34.2Q160.24-32.6 159.92-29.8 159.59-27 159.09-23.55 158.59-20.1 158.09-16.5 157.59-12.9 157.27-9.63 156.94-6.35 156.94-3.9L156.94-3.9Q156.94-0.1 157.64 1.55L157.64 1.55Q154.69 0.8 153.09-0.28 151.49-1.35 150.89-2.88 150.29-4.4 150.29-6.45L150.29-6.45Q150.29-8 150.59-10.58 150.89-13.15 151.31-16.35 151.74-19.55 152.17-23 152.59-26.45 152.89-29.8 153.19-33.15 153.19-36L153.19-36Q153.19-37.05 153.14-38.1 153.09-39.15 152.99-40.1L152.99-40.1Q155.59-40 157.06-39.55 158.54-39.1 159.22-38.33 159.89-37.55 160.06-36.52 160.24-35.5 160.24-34.2ZM139.29-34.2L139.29-34.2Q139.29-32.6 138.97-29.8 138.64-27 138.14-23.55 137.64-20.1 137.14-16.5 136.64-12.9 136.31-9.63 135.99-6.35 135.99-3.9L135.99-3.9Q135.99-2.05 136.17-0.65 136.34 0.75 136.69 1.55L136.69 1.55Q133.74 0.8 132.14-0.28 130.54-1.35 129.94-2.88 129.34-4.4 129.34-6.45L129.34-6.45Q129.34-8 129.64-10.58 129.94-13.15 130.37-16.35 130.79-19.55 131.22-23 131.64-26.45 131.94-29.8 132.24-33.15 132.24-36L132.24-36Q132.24-37.05 132.19-38.1 132.14-39.15 132.04-40.1L132.04-40.1Q134.64-40 136.12-39.55 137.59-39.1 138.27-38.33 138.94-37.55 139.12-36.52 139.29-35.5 139.29-34.2Z" fill="#d94e28" data-fill-palette-color="primary"></path></g></svg></g></svg></g></svg></g></svg></g><g transform="matrix(1,0,0,1,53.04846842240953,0)"><svg viewBox="0 0 138.33442315518093 138.33442315518093" height="138.33442315518093" width="138.33442315518093"><g><svg></svg></g><g id="icon-0"><svg viewBox="0 0 138.33442315518093 138.33442315518093" height="138.33442315518093" width="138.33442315518093"><g><path d="M0 69.167c0-38.2 30.967-69.167 69.167-69.167 38.2 0 69.167 30.967 69.167 69.167 0 38.2-30.967 69.167-69.167 69.167-38.2 0-69.167-30.967-69.167-69.167zM69.167 132.069c34.74 0 62.902-28.162 62.902-62.902 0-34.74-28.162-62.902-62.902-62.902-34.74 0-62.902 28.162-62.902 62.902 0 34.74 28.162 62.902 62.902 62.902z" data-fill-palette-color="accent" fill="#f9744c" stroke="transparent"></path><ellipse rx="68.47553946181456" ry="68.47553946181456" cx="69.16721157759046" cy="69.16721157759046" fill="#f9744c" stroke="transparent" stroke-width="0" fill-opacity="1" data-fill-palette-color="accent"></ellipse></g><g transform="matrix(1,0,0,1,31.11935486235309,31.119835300039455)"><svg viewBox="0 0 76.09571343047475 76.09475255510202" height="76.09475255510202" width="76.09571343047475"><g><svg xmlns="http://www.w3.org/2000/svg" xmlns:xlink="http://www.w3.org/1999/xlink" version="1.0" x="0" y="0" viewBox="9.999989811685603 10 80.0010101883144 80" enable-background="new 0 0 100 100" xml:space="preserve" height="76.09475255510202" width="76.09571343047475" class="icon-dxe-0" data-fill-palette-color="quaternary" id="dxe-0"><path fill="none" stroke="#EFEFEF" stroke-linecap="round" stroke-linejoin="round" stroke-miterlimit="10" d="M25 69.998L22.499 90z"></path><path fill="none" stroke="#EFEFEF" stroke-linecap="round" stroke-linejoin="round" stroke-miterlimit="10" d="M47.5 49.169C45.943 50.096 44.262 50.623 42.501 50.623 40.252 50.623 38.13 49.79 36.241 48.329V48.877A6.63 6.63 0 0 1 34.288 53.594 6.7 6.7 0 0 1 32.121 55.039L13.366 62.812A11.45 11.45 0 0 0 10 70.936V90H47.5z"></path><path fill="none" stroke="#EFEFEF" stroke-linecap="round" stroke-linejoin="round" stroke-miterlimit="10" d="M47.5 10.912A14.2 14.2 0 0 0 42.501 10C35.239 10 29.262 15.446 28.397 22.478V26.537C26.557 27.191 25.234 28.928 25.234 30.991 25.234 35.029 27.284 38.302 29.84 38.415 32.19 45.657 36.971 50.624 42.5 50.624 44.261 50.624 45.942 50.118 47.499 49.195z"></path><path fill="none" stroke="#EFEFEF" stroke-linecap="round" stroke-linejoin="round" stroke-miterlimit="10" d="M77.272 53.51L74.619 50.858z"></path><circle fill="none" stroke="#EFEFEF" stroke-linecap="round" stroke-linejoin="round" stroke-miterlimit="10" cx="77.499" cy="77.498" r="5.7"></circle><path fill="none" stroke="#EFEFEF" stroke-linecap="round" stroke-linejoin="round" stroke-miterlimit="10" d="M81.088 86.158C82.554 85.553 84.205 86.156 84.979 87.496A12.5 12.5 0 0 0 87.496 84.976 3.12 3.12 0 0 1 86.161 81.083 3.114 3.114 0 0 1 89.856 79.278C89.94 78.696 89.999 78.104 89.999 77.497 89.999 76.892 89.94 76.302 89.856 75.72A3.12 3.12 0 0 1 86.161 73.911 3.115 3.115 0 0 1 87.496 70.02 12.5 12.5 0 0 0 84.979 67.499C84.206 68.843 82.552 69.446 81.086 68.839A3.115 3.115 0 0 1 79.279 65.14 13 13 0 0 0 77.5 65C76.892 65 76.303 65.059 75.719 65.141A3.12 3.12 0 0 1 73.912 68.84 3.114 3.114 0 0 1 70.022 67.504 12.6 12.6 0 0 0 67.503 70.022 3.115 3.115 0 0 1 68.84 73.913 3.12 3.12 0 0 1 65.142 75.722 12 12 0 0 0 65 77.499C65 78.106 65.057 78.698 65.142 79.28A3.12 3.12 0 0 1 68.84 81.089 3.12 3.12 0 0 1 67.503 84.982 12.6 12.6 0 0 0 70.022 87.498 3.12 3.12 0 0 1 73.912 86.16 3.12 3.12 0 0 1 75.719 89.861C76.303 89.941 76.892 90 77.5 90 78.106 90 78.697 89.941 79.279 89.859A3.124 3.124 0 0 1 81.088 86.158"></path><path fill="none" stroke="#EFEFEF" stroke-linecap="round" stroke-linejoin="round" stroke-miterlimit="10" d="M86.59 36.65V33.346z"></path><path fill="none" stroke="#EFEFEF" stroke-linecap="round" stroke-linejoin="round" stroke-miterlimit="10" d="M78.777 10.357A1.22 1.22 0 0 0 77.049 10.361H77.049L58.892 28.513 55.003 35 61.485 31.111 79.644 12.952H79.644A1.22 1.22 0 0 0 79.644 11.225z"></path><path fill="none" stroke="#EFEFEF" stroke-linecap="round" stroke-linejoin="round" stroke-miterlimit="10" d="M75.32 12.086L77.915 14.681z"></path><path fill="none" stroke="#EFEFEF" stroke-linecap="round" stroke-linejoin="round" stroke-miterlimit="10" d="M73.591 13.816L76.186 16.411z"></path><path fill="none" stroke="#EFEFEF" stroke-linecap="round" stroke-linejoin="round" stroke-miterlimit="10" d="M58.892 28.516L61.486 31.111z"></path><path fill="none" stroke="#EFEFEF" stroke-linecap="round" stroke-linejoin="round" stroke-miterlimit="10" d="M83.902 56.6L71.527 44.229A3.75 3.75 0 0 0 66.223 44.229H66.223L47.5 62.953V78.531L54.734 85.769A3.745 3.745 0 0 0 60.037 85.769L66.565 79.242A3.05 3.05 0 0 0 65.142 79.279 12 12 0 0 1 65 77.498C65 76.893 65.057 76.303 65.142 75.721A3.12 3.12 0 0 0 68.84 73.912 3.115 3.115 0 0 0 67.503 70.021 12.6 12.6 0 0 1 70.022 67.503 3.114 3.114 0 0 0 73.912 68.839 3.12 3.12 0 0 0 75.719 65.14 13 13 0 0 1 77.5 65C78.104 65 78.695 65.059 79.279 65.141 79.149 65.62 79.149 66.106 79.241 66.567L83.9 61.907H83.902A3.755 3.755 0 0 0 83.902 56.6"></path><path fill="none" stroke="#EFEFEF" stroke-linecap="round" stroke-linejoin="round" stroke-miterlimit="10" d="M65.34 45.115L47.5 62.953V69.701L61.804 84.006 66.569 79.242A3.06 3.06 0 0 0 65.143 79.279 12 12 0 0 1 65.001 77.498C65.001 76.893 65.058 76.303 65.143 75.721A3.12 3.12 0 0 0 68.841 73.912 3.115 3.115 0 0 0 67.504 70.021 12.6 12.6 0 0 1 70.023 67.503 3.114 3.114 0 0 0 73.913 68.839 3.12 3.12 0 0 0 75.72 65.14C76.303 65.059 76.892 65 77.5 65 78.104 65 78.695 65.059 79.279 65.141A3.1 3.1 0 0 0 79.241 66.571L83.018 62.792z"></path><path fill="none" stroke="#EFEFEF" stroke-linecap="round" stroke-linejoin="round" stroke-miterlimit="10" d="M86.692 16.817H75.779L61.485 31.111 55.003 35 58.892 28.514 70.589 16.818H47.5V53.185H57.271L66.224 44.23H66.224A3.75 3.75 0 0 1 71.528 44.23L80.482 53.185H86.693A3.31 3.31 0 0 0 90.001 49.877V20.125A3.31 3.31 0 0 0 86.692 16.817"></path><path fill="none" stroke="#EFEFEF" stroke-linecap="round" stroke-linejoin="round" stroke-miterlimit="10" d="M73.505 19.09L61.485 31.111 55.003 35 58.892 28.514 68.317 19.091H47.5V50.911H59.544L66.224 44.23H66.224A3.75 3.75 0 0 1 71.528 44.23L78.209 50.911H83.182V19.09z"></path></svg></g></svg></g></svg></g></svg></g><g></g></svg></g></svg></g><path d="M0 41.215L0 1 155.195 1 155.195 41.215 151.217 41.215 151.217 4.978 3.978 4.978 3.978 41.215 0 41.215M0 205.985L0 246.2 155.195 246.2 155.195 205.985 151.217 205.985 151.217 242.222 3.978 242.222 3.978 205.985 0 205.985" fill="#d94e28" stroke="transparent" data-fill-palette-color="tertiary"></path></svg></g><defs></defs></svg><rect width="155.19528133719894" height="247.2" fill="none" stroke="none" visibility="hidden"></rect></g></svg></g></svg>